#N canvas 64 64 1920 1166 12;
#X obj 1152 120 route list;
#X obj 1152 75 netreceive -u -b 16000;
#X obj 1152 98 oscparse;
#X obj 1281 144 route myo;
#X obj 1093 199 route emg0 emg1 emg2 emg3 emg4 emg5 emg6 emg7;
#X obj 1095 497 pack f f f f f f f f;
#X obj 1123 450 t b f;
#X obj 1165 450 t b f;
#X obj 1206 450 t b f;
#X obj 1247 450 t b f;
#X obj 1288 449 t b f;
#X obj 1329 449 t b f;
#X obj 1371 449 t b f;
#X obj 1095 530 s emg_m;
#X obj 1501 227 s euler_m;
#X obj 141 504 abs;
#X obj 118 631 *~;
#X obj 74 504 osc~ 110;
#X obj 263 502 abs;
#X obj 240 618 *~;
#X obj 378 501 abs;
#X obj 351 625 *~;
#X obj 495 502 abs;
#X obj 469 625 *~;
#X obj 616 500 abs;
#X obj 586 620 *~;
#X obj 738 498 abs;
#X obj 708 618 *~;
#X obj 853 497 abs;
#X obj 823 617 *~;
#X obj 969 495 abs;
#X obj 939 615 *~;
#X obj 196 502 osc~ 200;
#X obj 311 501 osc~ 320;
#X obj 427 499 osc~ 430;
#X obj 549 500 osc~ 550;
#X obj 671 498 osc~ 670;
#X obj 786 497 osc~ 835;
#X obj 895 495 osc~ 1142;
#X obj 642 98 unpack f f f f f f f f;
#X obj 530 899 dac~ 1 2;
#X obj 141 564 lop~ 3;
#X obj 74 459 *~ 1.1;
#X obj 195 457 *~ 2;
#X obj 311 456 *~ 3.2;
#X obj 401 430 *~ 4.3;
#X obj 551 384 *~ 5.5;
#X obj 669 434 *~ 6.7;
#X obj 783 416 *~ 8.35;
#X obj 878 420 *~ 11.42;
#X obj 486 236 +~ 100;
#X obj 488 211 *~ 100;
#X obj 526 182 lop~ 3;
#X obj 521 100 unpack f f f;
#X obj 522 68 r euler_m;
#X obj 642 68 r emg_m;
#X obj 618 809 *~ 0.25;
#X obj 452 810 *~ 0.25;
#X obj 257 562 lop~ 3;
#X obj 369 562 lop~ 3;
#X obj 485 560 lop~ 3;
#X obj 609 559 lop~ 3;
#X obj 725 557 lop~ 3;
#X obj 837 557 lop~ 3;
#X obj 953 555 lop~ 3;
#X obj 139 535 clip~ 0 1;
#X obj 256 532 clip~ 0 1;
#X obj 374 536 clip~ 0 1;
#X obj 491 533 clip~ 0 1;
#X obj 613 529 clip~ 0 1;
#X obj 730 526 clip~ 0 1;
#X obj 848 530 clip~ 0 1;
#X obj 965 527 clip~ 0 1;
#X obj 1092 228 unpack f f;
#X obj 1108 283 unpack f f;
#X obj 1122 335 unpack f f;
#X obj 1138 390 unpack f f;
#X obj 1297 227 unpack f f;
#X obj 1313 282 unpack f f;
#X obj 1327 334 unpack f f;
#X obj 1343 389 unpack f f;
#X obj 1093 256 maxlib/scale -127 127 -1 1 0;
#X obj 1109 311 maxlib/scale -127 127 -1 1 0;
#X obj 1123 363 maxlib/scale -127 127 -1 1 0;
#X obj 1139 418 maxlib/scale -127 127 -1 1 0;
#X obj 1298 255 maxlib/scale -127 127 -1 1 0;
#X obj 1314 310 maxlib/scale -127 127 -1 1 0;
#X obj 1328 362 maxlib/scale -127 127 -1 1 0;
#X obj 1344 417 maxlib/scale -127 127 -1 1 0;
#X obj 1578 228 unpack f f f;
#X obj 1578 261 pow 2;
#X obj 1619 261 pow 2;
#X obj 1660 261 pow 2;
#X obj 1598 307 +;
#X obj 1625 342 +;
#X obj 1626 380 sqrt;
#X obj 1705 224 unpack f f f;
#X obj 1705 257 pow 2;
#X obj 1746 257 pow 2;
#X obj 1787 257 pow 2;
#X obj 1725 303 +;
#X obj 1752 338 +;
#X obj 1753 376 sqrt;
#X obj 1698 440 +;
#X obj 1501 185 route euler gyroscope acceleration;
#X obj 1698 500 s myo_thresh;
#X obj 168 719 sel 0 1;
#X obj 169 692 r myo_thresh;
#X obj 265 887 line;
#X msg 273 838 stop;
#X msg 191 836 stop;
#X obj 167 748 spigot;
#X obj 225 748 spigot;
#X obj 258 692 loadbang;
#X msg 259 714 1;
#X obj 167 784 t b b b b;
#X obj 249 785 t b b b b;
#X msg 221 807 0;
#X msg 191 807 1;
#X msg 307 807 0;
#X msg 277 807 1;
#X msg 169 863 0.25 30000;
#X obj 1698 467 > 10;
#X obj 765 761 loadbang;
#X obj 524 137 * 1;
#X msg 766 794 0;
#X msg 262 864 0 400;
#X connect 0 0 3 0;
#X connect 1 0 2 0;
#X connect 2 0 0 0;
#X connect 3 0 4 0;
#X connect 3 0 104 0;
#X connect 4 0 73 0;
#X connect 4 1 74 0;
#X connect 4 2 75 0;
#X connect 4 3 76 0;
#X connect 4 4 77 0;
#X connect 4 5 78 0;
#X connect 4 6 79 0;
#X connect 4 7 80 0;
#X connect 5 0 13 0;
#X connect 6 0 5 0;
#X connect 6 1 5 1;
#X connect 7 0 5 0;
#X connect 7 1 5 2;
#X connect 8 0 5 0;
#X connect 8 1 5 3;
#X connect 9 0 5 0;
#X connect 9 1 5 4;
#X connect 10 0 5 0;
#X connect 10 1 5 5;
#X connect 11 0 5 0;
#X connect 11 1 5 6;
#X connect 12 0 5 0;
#X connect 12 1 5 7;
#X connect 15 0 65 0;
#X connect 16 0 57 0;
#X connect 17 0 16 0;
#X connect 18 0 66 0;
#X connect 19 0 57 0;
#X connect 20 0 67 0;
#X connect 21 0 57 0;
#X connect 22 0 68 0;
#X connect 23 0 57 0;
#X connect 24 0 69 0;
#X connect 25 0 56 0;
#X connect 26 0 70 0;
#X connect 27 0 56 0;
#X connect 28 0 71 0;
#X connect 29 0 56 0;
#X connect 30 0 72 0;
#X connect 31 0 56 0;
#X connect 32 0 19 0;
#X connect 33 0 21 0;
#X connect 34 0 23 0;
#X connect 35 0 25 0;
#X connect 36 0 27 0;
#X connect 37 0 29 0;
#X connect 38 0 31 0;
#X connect 39 0 15 0;
#X connect 39 1 18 0;
#X connect 39 2 20 0;
#X connect 39 3 22 0;
#X connect 39 4 24 0;
#X connect 39 5 26 0;
#X connect 39 6 28 0;
#X connect 39 7 30 0;
#X connect 41 0 16 1;
#X connect 42 0 17 0;
#X connect 43 0 32 0;
#X connect 44 0 33 0;
#X connect 45 0 34 0;
#X connect 46 0 35 0;
#X connect 47 0 36 0;
#X connect 48 0 37 0;
#X connect 49 0 38 0;
#X connect 50 0 42 0;
#X connect 50 0 49 0;
#X connect 50 0 48 0;
#X connect 50 0 47 0;
#X connect 50 0 46 0;
#X connect 50 0 45 0;
#X connect 50 0 44 0;
#X connect 50 0 43 0;
#X connect 51 0 50 0;
#X connect 52 0 51 0;
#X connect 53 1 124 0;
#X connect 54 0 53 0;
#X connect 55 0 39 0;
#X connect 56 0 40 1;
#X connect 57 0 40 0;
#X connect 58 0 19 1;
#X connect 59 0 21 1;
#X connect 60 0 23 1;
#X connect 61 0 25 1;
#X connect 62 0 27 1;
#X connect 63 0 29 1;
#X connect 64 0 31 1;
#X connect 65 0 41 0;
#X connect 66 0 58 0;
#X connect 67 0 59 0;
#X connect 68 0 60 0;
#X connect 69 0 61 0;
#X connect 70 0 62 0;
#X connect 71 0 63 0;
#X connect 72 0 64 0;
#X connect 73 0 81 0;
#X connect 73 1 81 0;
#X connect 74 0 82 0;
#X connect 74 1 82 0;
#X connect 75 0 83 0;
#X connect 75 1 83 0;
#X connect 76 0 84 0;
#X connect 76 1 84 0;
#X connect 77 0 85 0;
#X connect 77 1 85 0;
#X connect 78 0 86 0;
#X connect 78 1 86 0;
#X connect 79 0 87 0;
#X connect 79 1 87 0;
#X connect 80 0 88 0;
#X connect 80 1 88 0;
#X connect 81 0 5 0;
#X connect 82 0 6 0;
#X connect 83 0 7 0;
#X connect 84 0 8 0;
#X connect 85 0 9 0;
#X connect 86 0 10 0;
#X connect 87 0 11 0;
#X connect 88 0 12 0;
#X connect 89 0 90 0;
#X connect 89 1 91 0;
#X connect 89 2 92 0;
#X connect 90 0 93 0;
#X connect 91 0 93 1;
#X connect 92 0 94 1;
#X connect 93 0 94 0;
#X connect 94 0 95 0;
#X connect 95 0 103 0;
#X connect 96 0 97 0;
#X connect 96 1 98 0;
#X connect 96 2 99 0;
#X connect 97 0 100 0;
#X connect 98 0 100 1;
#X connect 99 0 101 1;
#X connect 100 0 101 0;
#X connect 101 0 102 0;
#X connect 102 0 103 1;
#X connect 103 0 122 0;
#X connect 104 0 14 0;
#X connect 104 1 89 0;
#X connect 104 2 96 0;
#X connect 106 0 111 0;
#X connect 106 1 112 0;
#X connect 107 0 106 0;
#X connect 108 0 56 1;
#X connect 108 0 57 1;
#X connect 109 0 108 0;
#X connect 110 0 108 0;
#X connect 111 0 115 0;
#X connect 112 0 116 0;
#X connect 113 0 114 0;
#X connect 114 0 112 1;
#X connect 115 0 121 0;
#X connect 115 1 110 0;
#X connect 115 2 118 0;
#X connect 115 3 117 0;
#X connect 116 0 126 0;
#X connect 116 1 109 0;
#X connect 116 2 120 0;
#X connect 116 3 119 0;
#X connect 117 0 111 1;
#X connect 118 0 112 1;
#X connect 119 0 112 1;
#X connect 120 0 111 1;
#X connect 121 0 108 0;
#X connect 122 0 105 0;
#X connect 123 0 125 0;
#X connect 124 0 52 0;
#X connect 125 0 56 1;
#X connect 125 0 57 1;
#X connect 126 0 108 0;
