#N canvas -423 72 1920 1166 12;
#X obj 1146 541 abs;
#X obj 1079 541 osc~ 110;
#X obj 1268 539 abs;
#X obj 1383 538 abs;
#X obj 1500 539 abs;
#X obj 1621 537 abs;
#X obj 1743 535 abs;
#X obj 1858 534 abs;
#X obj 1201 539 osc~ 200;
#X obj 1316 538 osc~ 320;
#X obj 1432 536 osc~ 430;
#X obj 1554 537 osc~ 550;
#X obj 1676 535 osc~ 670;
#X obj 1791 534 osc~ 835;
#X obj 1900 532 osc~ 1142;
#X obj 1694 277 unpack f f f f f f f f;
#X obj 1079 496 *~ 1.1;
#X obj 1200 494 *~ 2;
#X obj 1316 493 *~ 3.2;
#X obj 1406 467 *~ 4.3;
#X obj 1556 421 *~ 5.5;
#X obj 1674 471 *~ 6.7;
#X obj 1788 453 *~ 8.35;
#X obj 1883 457 *~ 11.42;
#X obj 1531 219 lop~ 3;
#X obj 143 124 route list;
#X obj 143 79 netreceive -u -b 16000;
#X obj 143 102 oscparse;
#X obj 142 154 route sifi;
#X obj 142 212 route emg imu;
#X obj 142 403 route emg0 emg1 emg2 emg3 emg4 emg5 emg6 emg7;
#X obj 141 656 pack f f f f f f f f, f 53;
#X obj 1529 100 unpack f f f;
#X obj 439 352 pack f f f;
#X obj 468 318 t b f;
#X obj 509 319 t b f;
#X obj 1529 63 r euler_s;
#X obj 1694 247 r emg_s;
#X obj 141 685 s emg_s;
#X obj 439 380 s euler_s;
#X obj 1066 666 *~;
#X obj 1188 653 *~;
#X obj 1299 660 *~;
#X obj 1417 660 *~;
#X obj 1534 655 *~;
#X obj 1656 653 *~;
#X obj 1771 652 *~;
#X obj 1887 650 *~;
#X obj 1461 930 dac~ 1 2;
#X obj 1089 599 lop~ 3;
#X obj 1205 597 lop~ 3;
#X obj 1317 597 lop~ 3;
#X obj 1433 595 lop~ 3;
#X obj 1557 594 lop~ 3;
#X obj 1673 592 lop~ 3;
#X obj 1785 592 lop~ 3;
#X obj 1918 590 lop~ 3;
#X obj 1087 570 clip~ 0 1;
#X obj 1204 567 clip~ 0 1;
#X obj 1322 571 clip~ 0 1;
#X obj 1439 568 clip~ 0 1;
#X obj 1561 564 clip~ 0 1;
#X obj 1678 561 clip~ 0 1;
#X obj 1796 565 clip~ 0 1;
#X obj 656 366 pow 2;
#X obj 697 366 pow 2;
#X obj 738 366 pow 2;
#X obj 676 412 +;
#X obj 703 447 +;
#X obj 704 485 sqrt;
#X obj 702 538 abs;
#X obj 201 251 route ax ay az qw qx qy qz roll pitch yaw omega, f
66;
#X obj 853 373 pow 2;
#X obj 894 373 pow 2;
#X obj 935 373 pow 2;
#X obj 873 419 +;
#X obj 900 454 +;
#X obj 901 492 sqrt;
#X obj 901 519 abs;
#X obj 716 616 +;
#X obj 714 681 s sifi_thresh;
#X obj 1640 788 loadbang;
#X obj 703 515 - 1;
#X obj 1400 845 *~ 0.25;
#X obj 1554 844 *~ 0.25;
#X obj 1499 155 * -1;
#X obj 41 454 maxlib/scale 0.003544 0.003628 -1 1 0;
#X obj 70 475 maxlib/scale 0.003578 0.003609 -1 1 0;
#X obj 90 498 maxlib/scale 0.003567 0.003613 -1 1 0;
#X obj 341 453 maxlib/scale 0.003569 0.003614 -1 1 0;
#X obj 365 475 maxlib/scale 0.003563 0.003615 -1 1 0;
#X obj 388 497 maxlib/scale 0.003565 0.003596 -1 1 0;
#X obj 403 518 maxlib/scale 0.003557 0.003621 -1 1 0;
#X obj 1980 532 abs;
#X obj 1925 563 clip~ 0 1;
#X obj 1491 273 +~ 50;
#X obj 694 570 * 2;
#X obj 835 336 maxlib/delta;
#X obj 931 336 maxlib/delta;
#X obj 1032 336 maxlib/delta;
#X floatatom 570 394 5 0 0 0 - - - 0;
#X obj 999 749 sel 0 1;
#X obj 1145 958 line;
#X msg 1153 909 stop;
#X msg 1079 921 stop;
#X obj 989 816 spigot;
#X obj 1047 816 spigot;
#X obj 1147 725 loadbang;
#X msg 1148 747 1;
#X obj 989 852 t b b b b;
#X obj 1129 856 t b b b b;
#X msg 1109 892 0;
#X msg 1079 892 1;
#X msg 1187 878 0;
#X msg 1157 878 1;
#X msg 991 931 0.25 30000;
#X obj 1000 722 r sifi_thresh;
#X obj 714 648 > 0.43;
#X msg 1142 935 0 400;
#X obj 1494 248 *~ 5;
#X obj 136 523 maxlib/scale 0.003561 0.003615 -1 1 0;
#X msg 1641 822 0.25;
#X connect 0 0 57 0;
#X connect 1 0 40 0;
#X connect 2 0 58 0;
#X connect 3 0 59 0;
#X connect 4 0 60 0;
#X connect 5 0 61 0;
#X connect 6 0 62 0;
#X connect 7 0 63 0;
#X connect 8 0 41 0;
#X connect 9 0 42 0;
#X connect 10 0 43 0;
#X connect 11 0 44 0;
#X connect 12 0 45 0;
#X connect 13 0 46 0;
#X connect 14 0 47 0;
#X connect 15 0 0 0;
#X connect 15 1 3 0;
#X connect 15 2 4 0;
#X connect 15 3 93 0;
#X connect 15 4 6 0;
#X connect 15 5 5 0;
#X connect 15 6 7 0;
#X connect 15 7 2 0;
#X connect 16 0 1 0;
#X connect 17 0 8 0;
#X connect 18 0 9 0;
#X connect 19 0 10 0;
#X connect 20 0 11 0;
#X connect 21 0 12 0;
#X connect 22 0 13 0;
#X connect 23 0 14 0;
#X connect 24 0 119 0;
#X connect 25 0 28 0;
#X connect 26 0 27 0;
#X connect 27 0 25 0;
#X connect 28 0 29 0;
#X connect 29 0 30 0;
#X connect 29 1 71 0;
#X connect 30 0 86 0;
#X connect 30 1 87 0;
#X connect 30 2 88 0;
#X connect 30 3 120 0;
#X connect 30 4 89 0;
#X connect 30 5 90 0;
#X connect 30 6 91 0;
#X connect 30 7 92 0;
#X connect 31 0 38 0;
#X connect 32 1 85 0;
#X connect 33 0 39 0;
#X connect 33 0 100 0;
#X connect 34 0 33 0;
#X connect 34 1 33 1;
#X connect 35 0 33 0;
#X connect 35 1 33 2;
#X connect 36 0 32 0;
#X connect 37 0 15 0;
#X connect 40 0 83 0;
#X connect 41 0 83 0;
#X connect 42 0 83 0;
#X connect 43 0 83 0;
#X connect 44 0 84 0;
#X connect 45 0 84 0;
#X connect 46 0 84 0;
#X connect 47 0 84 0;
#X connect 49 0 40 1;
#X connect 50 0 41 1;
#X connect 51 0 42 1;
#X connect 52 0 43 1;
#X connect 53 0 44 1;
#X connect 54 0 45 1;
#X connect 55 0 46 1;
#X connect 56 0 47 1;
#X connect 57 0 49 0;
#X connect 58 0 50 0;
#X connect 59 0 51 0;
#X connect 60 0 52 0;
#X connect 61 0 53 0;
#X connect 62 0 54 0;
#X connect 63 0 55 0;
#X connect 64 0 67 0;
#X connect 65 0 67 1;
#X connect 66 0 68 1;
#X connect 67 0 68 0;
#X connect 68 0 69 0;
#X connect 69 0 82 0;
#X connect 70 0 96 0;
#X connect 71 0 64 0;
#X connect 71 1 65 0;
#X connect 71 2 66 0;
#X connect 71 4 97 0;
#X connect 71 5 98 0;
#X connect 71 6 99 0;
#X connect 71 7 33 0;
#X connect 71 8 34 0;
#X connect 71 9 35 0;
#X connect 72 0 75 0;
#X connect 73 0 75 1;
#X connect 74 0 76 1;
#X connect 75 0 76 0;
#X connect 76 0 77 0;
#X connect 77 0 78 0;
#X connect 78 0 79 1;
#X connect 79 0 117 0;
#X connect 81 0 121 0;
#X connect 82 0 70 0;
#X connect 83 0 48 0;
#X connect 84 0 48 1;
#X connect 85 0 24 0;
#X connect 86 0 31 0;
#X connect 87 0 31 1;
#X connect 88 0 31 2;
#X connect 89 0 31 4;
#X connect 90 0 31 5;
#X connect 91 0 31 6;
#X connect 92 0 31 7;
#X connect 93 0 94 0;
#X connect 94 0 56 0;
#X connect 95 0 16 0;
#X connect 95 0 22 0;
#X connect 95 0 21 0;
#X connect 95 0 20 0;
#X connect 95 0 19 0;
#X connect 95 0 18 0;
#X connect 95 0 17 0;
#X connect 95 0 23 0;
#X connect 96 0 79 0;
#X connect 97 0 72 0;
#X connect 98 0 73 0;
#X connect 99 0 74 0;
#X connect 101 0 105 0;
#X connect 101 1 106 0;
#X connect 102 0 83 1;
#X connect 102 0 84 1;
#X connect 103 0 102 0;
#X connect 104 0 102 0;
#X connect 105 0 109 0;
#X connect 106 0 110 0;
#X connect 107 0 108 0;
#X connect 108 0 106 1;
#X connect 109 0 115 0;
#X connect 109 1 104 0;
#X connect 109 2 112 0;
#X connect 109 3 111 0;
#X connect 110 0 118 0;
#X connect 110 1 103 0;
#X connect 110 2 114 0;
#X connect 110 3 113 0;
#X connect 111 0 105 1;
#X connect 112 0 106 1;
#X connect 113 0 106 1;
#X connect 114 0 105 1;
#X connect 115 0 102 0;
#X connect 116 0 101 0;
#X connect 117 0 80 0;
#X connect 118 0 102 0;
#X connect 119 0 95 0;
#X connect 120 0 31 3;
#X connect 121 0 84 1;
#X connect 121 0 83 1;
